<svg xmlns="http://www.w3.org/2000/svg" viewBox="0 0 24 24" role="img" aria-labelledby="title">
  <title id="title">WP User Groups</title>
  <rect width="24" height="24" rx="4" fill="#3858E9"/>
  <!-- people path adapted from @wordpress/icons 15.4.0, GPL-2.0-or-later -->
  <path fill="#F0F0F0" fill-rule="evenodd" d="M15.5 9.5a1 1 0 1 0 0-2 1 1 0 0 0 0 2Zm0 1.5a2.5 2.5 0 1 0 0-5 2.5 2.5 0 0 0 0 5Zm-2.25 6v-2a2.75 2.75 0 0 0-2.75-2.75h-4A2.75 2.75 0 0 0 3.75 15v2h1.5v-2c0-.69.56-1.25 1.25-1.25h4c.69 0 1.25.56 1.25 1.25v2h1.5Zm7-2v2h-1.5v-2c0-.69-.56-1.25-1.25-1.25H15v-1.5h2.5A2.75 2.75 0 0 1 20.25 15ZM9.5 8.5a1 1 0 1 1-2 0 1 1 0 0 1 2 0Zm1.5 0a2.5 2.5 0 1 1-5 0 2.5 2.5 0 0 1 5 0Z"/>
  <circle cx="19.25" cy="5" r="1.35" fill="#F0C33C"/>
</svg>
